<?xml version="1.0" encoding="utf-8"?>
<!-- Generator: Adobe Illustrator 26.5.0, SVG Export Plug-In . SVG Version: 6.00 Build 0)  -->
<svg version="1.1" id="Layer_1" xmlns="http://www.w3.org/2000/svg" xmlns:xlink="http://www.w3.org/1999/xlink" x="0px" y="0px"
	 viewBox="0 0 500 500" style="enable-background:new 0 0 500 500;" xml:space="preserve">
<style type="text/css">
	.st0{fill:#0F2843;}
</style>
<g>
	<path class="st0" d="M86.92,282.54c23.32-14.58,51.91-53.5,62.1-70.06c0.57-0.92,1.16-1.93,1.77-2.97l0,0
		c5.48-9.93,23.76-26.4,33.53-26.4c0.27,0,0.31,0.07,0.34,0.13c0.56,0.97-0.35,5.42-5.15,13.71c-7.11,12.29-18.07,25-24.11,25.01
		l0,0c-0.86,0-1.62-0.4-2.06-1.1c-0.44-0.69-0.5-1.54-0.16-2.27c0.25-0.54,0.02-1.18-0.52-1.43c-0.54-0.25-1.18-0.02-1.43,0.52
		c-0.65,1.4-0.54,3.02,0.3,4.33c0.84,1.31,2.29,2.09,3.87,2.09l0,0c0.85,0,1.69-0.05,2.5-0.1c22.09-1.41,37.21-15.7,49.41-28.03
		c-1.24,1.65-2.35,3.19-3.19,4.41c-7.36,10.68-10.23,18.32-8.88,22.85c0.02,0.07,0.05,0.14,0.08,0.21l0,0l0.02,0.05
		c0.02,0.04,0.03,0.09,0.05,0.12l0,0c0.59,1.74,1.79,2.85,3.5,3.17c0.33,0.06,0.69,0.09,1.06,0.09c7.91,0,24.41-13.67,37.42-26.9
		c-7.95,13.59-11.77,26.74-10.6,34.78c0.64,4.36,2.74,6.08,4.38,6.75c1.26,0.51,2.61,0.75,4.05,0.75
		c16.44,0,42.94-31.15,44.16-32.59c0.38-0.45,0.33-1.13-0.13-1.51c-0.46-0.39-1.13-0.33-1.51,0.13
		c-0.31,0.37-31.52,37.05-45.75,31.23c-1.64-0.67-2.67-2.37-3.07-5.06c-0.72-6.02,9.43-22.63,26.48-43.34
		c14.22-17.28,29.31-32.43,34.48-34.71c0.21-0.08,0.42-0.16,0.64-0.23c3.71-1.33,7.52-2.36,11.33-3.09
		c-8.2,12.4-20.16,30.99-22.07,33.95c-0.31,0.48-0.19,1.11,0.27,1.45c0.19,0.14,0.41,0.21,0.63,0.21c0.31,0,0.61-0.13,0.83-0.39
		c10.1-12.1,33.64-40.47,34.1-42.62c0.35-1.64-0.45-3.24-2.03-4.08c-1.47-0.78-3.14-0.64-4.07,0.33c-0.59,0.62-2.95,4.07-6.11,8.81
		c-0.16-0.05-0.33-0.08-0.5-0.05c-4.41,0.75-8.83,1.92-13.12,3.46l0,0c-0.16,0.05-0.32,0.11-0.5,0.18
		c-18.32,7.21-33.61,20.09-44.38,34.37c-14.15,16.47-37.95,37.4-45.6,35.96c-0.97-0.18-1.58-0.77-1.91-1.85l-0.02-0.03l-0.01-0.04
		c-0.05-0.13-0.09-0.26-0.13-0.4c-0.59-4.01,15.59-22.5,32.13-38.62c0.31-0.31,0.41-0.77,0.25-1.17c-0.16-0.4-0.56-0.67-1-0.67
		h-9.17l-0.05,0.02c-0.22,0.01-0.44,0.07-0.63,0.22c-3.88,3.14-7.81,7.11-11.97,11.32c-9.76,9.87-20.49,20.7-34.8,25.69
		c3.75-2.46,6.69-5.49,8.86-8.28c5.24-6.74,8.63-15.45,8.63-22.18c0-2.23-0.39-4.04-1.16-5.36c-0.9-1.55-2.28-2.37-3.99-2.37l0,0
		c-7.98,0-19.15,8.44-27.09,16.79c1.39-2.63,2.82-5.37,4.28-8.16c7.25-13.9,15.3-29.63,21.14-35.8c0.41-0.43,0.83-0.85,1.25-1.25
		c4-3.93,7.91-7.1,11.64-9.43c0.5-0.31,0.66-0.98,0.34-1.48c-0.31-0.5-0.98-0.66-1.48-0.34c-3.86,2.41-7.9,5.68-12.01,9.72l0,0
		c-0.42,0.38-0.84,0.82-1.3,1.3c-7.62,8.06-15.97,19.46-24.85,32.01c-15.91,22.49-44.47,41.29-53.59,41.29
		c-2.49,0-4.43-1.05-5.79-3.12c-3.89-7.35,8.15-19.23,19.8-30.73c7.29-7.19,14.8-14.61,19.03-21.41c0.5-0.64,0.89-1.31,1.15-2.02
		c1.32-3.57,0.34-6.83-0.68-9.6c-0.05-0.13-0.1-0.26-0.14-0.39c-1.76-5.13,0.74-14.17,6.77-24.32c9.13-15.37,26.42-32.8,43.14-35.31
		c0.27-0.04,0.53-0.08,0.8-0.11c4.09-0.44,6.81-0.15,9.26,0.3c-12.28,18.69-31.36,48.31-34.36,52.96c-0.31,0.48-0.19,1.13,0.29,1.46
		c0.19,0.13,0.4,0.2,0.62,0.2c0.32,0,0.64-0.15,0.85-0.42c14.6-19.07,48.61-63.66,49.06-65.79c0.35-1.64-0.45-3.24-2.03-4.08
		c-1.47-0.78-3.14-0.64-4.07,0.33c-0.61,0.63-4.19,5.97-9.08,13.41c-2.86-0.61-5.91-0.91-10.75-0.5l0,0l-0.03,0
		c-0.28,0.03-0.56,0.07-0.85,0.11c-28.54,3.93-45.06,13.64-51.94,30.51c-6.22,15.27-2.82,23.98-0.33,30.33
		c0.22,0.56,0.73,1.91,0.78,2.04c1.16,3.04,1.63,5.47,0.7,8.06c-0.28,0.51-0.58,1.03-0.9,1.56c-1.94,2.4-6.18,4.57-10.96,7.03
		c-11.24,5.76-26.64,13.66-30,32.71c-0.78,4.44-0.66,10.66,2.03,14.79c1.76,2.7,4.39,4.13,7.62,4.13c7.78,0,27.53-12.12,43.8-28.7
		c-3.26,5.01-6.53,10.09-9.78,15.13c-18.07,28.12-36.76,57.18-50.8,66.46c-3.43,2.25-6.74,3.76-9.96,4.5
		c-0.58,0.13-0.94,0.71-0.8,1.29c0.12,0.5,0.56,0.83,1.05,0.83c0.08,0,0.16-0.01,0.24-0.03c3.42-0.79,6.9-2.36,10.5-4.7
		L86.92,282.54z"/>
	<path class="st0" d="M238.07,162.83c2.36,0,4.28-1.92,4.28-4.28c0-2.36-1.92-4.28-4.28-4.28s-4.28,1.92-4.28,4.28
		C233.79,160.91,235.71,162.83,238.07,162.83z"/>
	<path class="st0" d="M327.52,300.09c-2.36,0-4.28,1.92-4.28,4.28c0,2.36,1.92,4.28,4.28,4.28c2.36,0,4.28-1.92,4.28-4.28
		C331.8,302.01,329.88,300.09,327.52,300.09z"/>
	<path class="st0" d="M444.77,241.39c-7.76-15.5-26.5-22.3-50.12-18.19c-36.7,6.39-66.88,35.25-87.35,61.38
		c-9.09-2.34-18.15-4.87-27.06-7.38c9.53-12.19,14.8-23.73,15.66-30.29c0.71-5.41-1.4-6.81-2.73-7.17
		c-8.18-2.19-17.74,5.1-26.82,12.77l0,0c-5.12,4.12-10.66,9.67-16.51,16.24c-24.55-6.5-46.8-11-63.01-8.42
		c-31.49,5-44.6,22.86-43.46,37.34c0.96,12.15,12.66,26.34,42.48,26.34c7.98,0,15.54-0.77,22.68-2.16c-2.12,2.9-4.17,5.89-6.38,8.78
		c-5.54,7.24-16.59,14.55-29.14,21.02c0.19-0.29,0.39-0.58,0.57-0.85c1.6-2.35,2.87-4.2,2.32-5.79c-0.27-0.79-0.93-1.35-1.95-1.68
		c-2.34-0.75-4.79,0.14-6.54,2.37c-1.74,2.22-2.73,5.69-2.2,9.75c-18.07,8.31-37.94,14.24-50.36,14.24c-0.59,0-1.07,0.48-1.07,1.07
		c0,0.59,0.48,1.07,1.07,1.07c13.63,0,33.14-5.92,50.81-14.11c0.5,1.93,1.33,3.95,2.59,6.01c0.85,2.26,2.82,4.12,5.61,5.4
		c-19.14,25.36-38.13,48.4-55.72,62.8c-13.13,10.75-24.46,15.98-34.62,15.98c-0.59,0-1.07,0.48-1.07,1.07
		c0,0.59,0.48,1.07,1.07,1.07c10.68,0,22.45-5.39,35.98-16.47l0,0c24.4-18.45,45.66-40.39,64.04-62.56c0.04,0,0.08,0.01,0.12,0.01
		c9.5,0,22.13-4.21,35.25-15.57c-0.03,0.09-0.08,0.18-0.11,0.27c-2.09,5.68-1.58,10.44,1.42,13.41l0.02,0.02l0,0l0,0l0.03,0.03
		c1.64,1.7,3.76,2.55,6.32,2.55c2.45,0,5.28-0.78,8.43-2.34c6.28-3.11,13.41-9.22,19.06-15.86c-3.67,6.64-4.93,11.64-3.94,14.95
		c0.02,0.07,0.05,0.14,0.08,0.21l0,0l0.02,0.05c0.02,0.04,0.03,0.08,0.04,0.12l0.02,0.02c0.57,1.66,1.76,2.73,3.5,3.05
		c0.38,0.07,0.79,0.1,1.22,0.1c8.3,0,25.72-12.84,39.77-25.78c-7.03,10.34-9.9,17.82-8.46,22.22c0.02,0.07,0.05,0.15,0.08,0.21l0,0
		l0.02,0.06c0.02,0.04,0.02,0.08,0.04,0.11l0.01,0.02c0.57,1.66,1.76,2.73,3.5,3.05c0.38,0.07,0.78,0.1,1.2,0.1
		c8.53,0,26.78-13.68,41.02-27.03l-2.53,3.71c-3.81,5.6-4.55,15.53-0.18,19.05c0.04,0.03,0.09,0.07,0.13,0.09l0,0l0.03,0.02
		l0.05,0.03l0,0c2.13,1.52,4.5,2.2,7.04,2.2c19.31,0,48.13-39.06,49.5-40.94c0.35-0.48,0.25-1.15-0.23-1.5
		c-0.48-0.35-1.15-0.25-1.5,0.23c-0.09,0.13-9.46,12.89-20.84,23.91c-10.23,9.9-24.18,20.41-32.69,14.36
		c-0.39-2.28,6.2-14.52,24.74-41.59c14.7-7.67,27.09-17.43,37.06-27.55c17.28-1.99,32.77-7.82,45.15-19.51
		C448.06,267.99,450.81,253.46,444.77,241.39z M292.61,241.82c1.56,0.42,1.33,3.51,1.16,4.81c-0.85,6.48-6.12,17.92-15.67,29.97
		c-1.04-0.29-16.69-4.71-23.29-6.5c5.11-7.33,9.44-12.91,12.92-15.94C276.38,246.86,285.43,239.9,292.61,241.82z M240.22,291.98
		c4.87-7.43,9.3-14.2,13.3-20.01c6.82,1.84,22.37,6.24,23.12,6.45c-11.58,14.04-28.91,28.57-51.77,36.76
		C230.41,306.95,235.54,299.12,240.22,291.98z M185.84,321.87c-28.36,0-39.46-13.13-40.34-24.37
		c-1.07-13.52,11.51-30.26,41.66-35.05c3.07-0.49,6.36-0.71,9.87-0.71c14.3,0,32,3.77,51.2,8.81
		c-11.6,13.24-24.43,30.38-37.83,48.74C202.72,320.94,194.54,321.87,185.84,321.87z M170.19,362.88l-0.02-0.03l-0.01-0.04
		c-1.11-2.61-0.47-5.2,0.71-7.59c9.27-4.64,17.78-9.83,24.33-15.02c-6.65,9.15-13.35,18.3-20.03,27.19
		C172.62,366.32,170.83,364.74,170.19,362.88z M234.07,367.53c-3.88,1.92-9.17,3.51-12.34,0.18l0,0l0,0
		c-0.3-0.31-0.33-1.45,0.58-3.64c4.63-11.09,25.69-33.76,32.08-34.73c0.15-0.01,0.3-0.03,0.44-0.03c0.09-0.01,0.17-0.04,0.25-0.07
		l0.01,0.03c0.94-0.14,1.84-0.27,2.62-0.16c2.59,0.37,4.01,1.56,4.34,3.63C263.41,341.09,247.44,360.91,234.07,367.53z
		 M290.36,369.86c-1.02-0.19-1.61-0.73-1.92-1.74l-0.02-0.03l-0.01-0.04c-0.05-0.13-0.09-0.26-0.13-0.4
		c-0.59-4.01,15.59-22.5,32.13-38.62c0.31-0.31,0.41-0.77,0.25-1.17c-0.16-0.4-0.56-0.67-1-0.67h-9.17l-0.04,0.01
		c-0.31,0.01-0.61,0.14-0.81,0.4c-0.12,0.16-0.26,0.32-0.39,0.48c-1.34,1.28-3.51,3.81-5.83,6.69c-15.02,16-40.99,36.62-49.25,35.09
		c-1.02-0.19-1.62-0.73-1.92-1.74l-0.02-0.03l-0.01-0.04c-0.05-0.13-0.09-0.26-0.13-0.4c-0.59-4.01,15.59-22.5,32.13-38.62
		c0.31-0.31,0.41-0.77,0.25-1.17c-0.16-0.4-0.56-0.67-1-0.67h-9.17c-1.04,0-7.32,7.7-11.94,13.84c1.45-3.23,2.16-6.21,1.78-8.6
		c-0.34-2.1-1.67-4.75-6.12-5.39c-1.09-0.16-2.18,0.01-3.41,0.19c-0.13,0-0.25,0.01-0.39,0.03c-12.54,1.39-26.02,11.88-32.62,22.77
		c-13.37,13.05-26.59,18.21-36.29,18.8c14.23-17.35,26.7-34.76,37.53-50.7c24.92-8.27,43.65-24.01,55.92-39.09
		c8.91,2.51,17.98,5.05,27.08,7.41c-6.42,8.34-11.84,16.34-16.14,23.16c-0.31,0.5-0.17,1.16,0.33,1.48
		c0.18,0.12,0.38,0.17,0.58,0.17c0.35,0,0.69-0.17,0.9-0.48c3.36-5.11,10.05-13.54,18.76-23.19c18.94,4.78,37.93,8.67,55.85,9.92
		c-9.11,12.17-18.49,25.25-27.43,38.12C323.58,351.46,298.38,371.33,290.36,369.86z M376.03,295.74
		c18.64-25.92,35.06-47.32,37.35-49.36c0.08-0.06,0.15-0.11,0.23-0.16c2.79-1.98,4.36-2.4,5.18-2.4c0.33,0,1.03,0,1.36,1.37
		c1.55,6.33-7.35,28.5-28.14,49.81C386.84,295.57,381.5,295.81,376.03,295.74z M358.38,320.74c3.39-4.91,14.52-20.64,16.13-22.88
		c5.15,0.11,10.19-0.03,15.1-0.46C381.08,305.74,370.71,313.86,358.38,320.74z M395.16,294.61c19.54-20.74,28.93-42.34,27.08-49.93
		c-0.47-1.91-1.72-3.01-3.45-3.01c-1.67,0-3.77,0.91-6.42,2.8c-9.89,7.02-26.67,27.03-44.68,50.95
		c-17.82-1.11-36.79-4.91-55.76-9.65c22.3-24.38,56.64-55.44,83.09-60.44c22.63-3.94,40.51,2.43,47.83,17.03
		c5.62,11.21,3.04,24.73-6.41,33.65C425.08,286.73,410.96,292.38,395.16,294.61z"/>
</g>
</svg>
