<?xml version="1.0" encoding="utf-8"?>
<!-- Generator: Adobe Illustrator 26.5.0, SVG Export Plug-In . SVG Version: 6.00 Build 0)  -->
<svg version="1.1" id="Layer_1" xmlns="http://www.w3.org/2000/svg" xmlns:xlink="http://www.w3.org/1999/xlink" x="0px" y="0px"
	 viewBox="0 0 500 500" style="enable-background:new 0 0 500 500;" xml:space="preserve">
<style type="text/css">
	.st0{fill:#0F2843;}
</style>
<g>
	<path class="st0" d="M67.1,246.8c0.03,0,0.06,0,0.09,0h0.03c0.26-0.01,0.52-0.02,0.79-0.03c11.5-0.59,26.71-6.57,39.02-15.38
		c8.63-6.17,23.08-19.04,22.97-35.85c-0.03-4.47-0.87-7.87-2.57-10.39c-3.33-4.94-9.28-5.47-15.03-5.99
		c-6.07-0.54-11.8-1.06-14.74-6.31c-1.5-3.34-0.63-8.25,2.53-14.21c10.7-20.18,43.87-47.13,66.31-55.12
		c-1.89,3.27-3.79,6.67-5.68,10.04c-3.22,5.75-6.25,11.18-9.08,15.69c-0.31,0.5-0.18,1.16,0.31,1.49c0.19,0.13,0.41,0.19,0.62,0.19
		c0.34,0,0.67-0.15,0.88-0.44c3.9-5.23,8.39-10.64,13.14-16.37c7.13-8.59,14.49-17.47,20.59-26.63c0.49-0.74,0.61-1.9-0.54-2.91
		c-1.36-1.2-4.79-2.18-6.04-1.1c-3.78,3.26-8.03,9.61-12.4,16.96c-16.2,3.47-33.49,10.91-47.19,20.46
		c-17.25,12.03-27.08,26.05-27.65,39.47c-0.25,5.84,0.5,10.25,2.3,13.49c3.49,6.29,10.08,6.88,16.45,7.44
		c5.45,0.49,10.6,0.96,13.37,4.97c1.74,4.08-0.19,10.89-5.45,19.18c-11.33,17.87-35.2,38-51.97,39.16c-0.3,0.02-0.59,0.03-0.88,0.04
		c-1.56-0.3-1.82-0.93-1.9-1.14c-0.9-2.25,3.07-7.71,6.26-12.09c4.08-5.61,6.53-9.17,5.59-11.53c-0.25-0.62-0.86-1.43-2.34-1.7
		c-3.09-0.57-6.21,0.91-8.82,4.16c-4.54,5.67-6.57,15.22-4.33,20.43C62.78,245.2,64.63,246.59,67.1,246.8z"/>
	<path class="st0" d="M425.38,291.24c-14.2,20.4-42.23,42.75-51.66,41.28c-1.33-0.21-2.14-0.91-2.55-2.17
		c-0.34-2.88,3.98-7.7,8.56-12.82c6.94-7.75,14.81-16.53,12.53-24.55c-0.02-0.07-0.04-0.16-0.07-0.23l0,0l0,0l-0.02-0.05l-0.02-0.04
		c-0.57-1.77-1.8-2.9-3.6-3.23c-7.34-1.38-24.14,11.09-37.96,24c6.29-9.56,8.72-16.57,7.12-20.76l0-0.01l0,0
		c-0.77-1.91-2.05-3.09-3.79-3.48c-6.98-1.56-19.89,10.29-33.57,22.84c-10.12,9.3-21.6,19.82-25.69,19.02
		c-0.33-0.07-0.74-0.23-1.07-0.91c-0.04-0.12-0.08-0.23-0.12-0.35c-0.59-4.01,15.59-22.5,32.13-38.62c0.31-0.31,0.41-0.77,0.25-1.17
		c-0.16-0.4-0.56-0.67-1-0.67h-9.17l-0.04,0.01c-0.3,0.01-0.6,0.13-0.8,0.39c-0.15,0.18-0.3,0.36-0.45,0.54
		c-1.25,1.2-3.19,3.44-5.29,6.03c-19.86,20.94-48.57,34.95-59.27,35.87c-0.59,0.05-1.03,0.57-0.98,1.16
		c0.05,0.56,0.52,0.98,1.07,0.98c0.03,0,0.06,0,0.09,0c6.78-0.59,18.87-5.64,30.8-12.87c7.27-4.4,14.11-9.36,20.23-14.6
		c-0.24,0.33-0.47,0.66-0.67,0.96c-7.36,10.68-10.35,18.37-8.88,22.85c0.03,0.12,0.08,0.24,0.13,0.35l0.01,0.02l0,0l0.01,0.02l0,0
		c0.54,1.15,1.44,1.88,2.6,2.11c0.26,0.05,0.53,0.08,0.81,0.08c5.39,0,15.33-9.13,26.76-19.62c12.07-11.09,25.75-23.66,31.64-22.33
		c0.97,0.22,1.65,0.86,2.16,1.95c-0.42,4.02-18.35,25.39-29.72,38.09c-0.29,0.32-0.35,0.78-0.17,1.17c0.18,0.38,0.56,0.62,0.97,0.62
		l0.04,0l8.06-0.27c0.32,0,0.63-0.14,0.85-0.41c0.12-0.16,0.25-0.32,0.38-0.47c1.44-1.37,3.83-4.17,6.28-7.24
		c14.62-15.68,38.11-34.62,45.87-33.17c1.04,0.19,1.65,0.76,1.98,1.83l0,0l0,0c0.02,0.05,0.03,0.11,0.05,0.16
		c0.32,1.55-3.6,5.53-7.07,9.04c-7.49,7.6-17.74,18-14.04,28.29l0,0.01l0,0l0.02,0.05l0.02,0.02c0.65,2.06,2.12,3.34,4.27,3.68
		c0.4,0.06,0.83,0.1,1.27,0.1c12.07,0,39.12-23.04,52.49-42.26c0.34-0.49,0.22-1.16-0.27-1.5
		C426.39,290.64,425.72,290.76,425.38,291.24z"/>
	<circle class="st0" cx="192.15" cy="173.75" r="4.28"/>
	<path class="st0" d="M330.98,274.98c2.36,0,4.28-1.92,4.28-4.28c0-2.36-1.92-4.28-4.28-4.28s-4.28,1.92-4.28,4.28
		C326.7,273.06,328.62,274.98,330.98,274.98z"/>
	<path class="st0" d="M452.9,278.66c-23.93-21.26-67.21-30.51-115.77-24.76c-0.02,0-0.05-0.01-0.07,0l0,0
		c-40.49,6.08-91.74,30.13-130.17,67.5c-10.86-5.39-21.59-10.57-32.25-15.24c25.34-18.99,46.73-46.3,65.22-72.69
		c14.62-15.33,44.4-37.18,53.71-35.46c1.07,0.2,1.71,0.73,2.05,1.64c-0.35,3.96-19.03,26.29-30.87,39.59
		c-0.29,0.32-0.35,0.78-0.17,1.17c0.18,0.38,0.56,0.62,0.97,0.62l0.04,0c0,0,7.69-0.27,8.06-0.27l0,0c0.32,0,0.63-0.14,0.85-0.41
		c0.12-0.16,0.26-0.32,0.38-0.48c1.43-1.36,3.79-4.13,6.28-7.24c14.62-15.68,38.13-34.61,45.87-33.17c1.04,0.19,1.65,0.76,1.98,1.83
		l0,0l0,0c0.02,0.05,0.03,0.11,0.05,0.16c0.32,1.56-3.5,5.46-6.88,8.92c-7.31,7.49-17.32,17.74-13.62,28.03l0,0.01l0,0l0.02,0.05
		l0.02,0.02c0.66,2.08,2.14,3.37,4.29,3.71c0.39,0.06,0.81,0.09,1.24,0.09c11.87,0,38.62-22.85,51.88-41.92
		c0.34-0.49,0.22-1.16-0.27-1.5c-0.49-0.34-1.16-0.22-1.5,0.27c-14.36,20.63-41.55,42.41-51.02,40.93c-1.34-0.21-2.15-0.92-2.57-2.2
		c-0.34-2.88,3.86-7.63,8.32-12.67c6.77-7.64,14.24-16.25,12.15-24.31c-0.02-0.08-0.04-0.16-0.07-0.24l0,0l0,0l-0.02-0.05
		l-0.02-0.04c-0.57-1.77-1.8-2.89-3.59-3.23c-7.29-1.35-23.92,10.94-37.68,23.75c6.84-10.18,9.56-17.54,8.03-21.83l-0.01-0.06
		l-0.02-0.03l-0.01-0.04l-0.03-0.05c-0.57-1.73-1.85-2.83-3.73-3.18c-8.68-1.62-31.63,13.8-47.72,28.34
		c3.47-5.07,6.84-10.07,10.11-14.93c15.57-23.12,28.79-43.38,41.42-53.22c4.69-3.66,9.1-5.45,13.23-5.81
		c0.59-0.05,1.03-0.57,0.98-1.16c-0.05-0.59-0.55-1.04-1.16-0.98c-4.54,0.4-9.23,2.44-14.34,6.24c-10.86,8.07-25.18,24.82-41,44.8
		c2.06-3.59,3.28-6.85,3.28-9.48c0-6.61-3.9-11.06-9.7-11.06c-11.51,0-26.06,8.92-36.95,20.31c-0.06,0.05-0.13,0.09-0.18,0.16
		c-0.06,0.08-0.13,0.16-0.19,0.23c-1.49,1.58-2.91,3.19-4.24,4.84c-14.55,15.34-44.59,37.43-53.92,35.68
		c-1.14-0.21-1.81-0.79-2.13-1.82l-0.02-0.03l-0.01-0.04c-0.05-0.13-0.09-0.26-0.13-0.4c-0.59-4.01,15.59-22.5,32.13-38.62
		c0.31-0.31,0.41-0.77,0.25-1.17c-0.16-0.4-0.56-0.67-1-0.67h-9.17l-0.05,0.02c-0.22,0.01-0.44,0.07-0.63,0.22
		c-3.46,2.8-6.66,5.72-10.05,8.81c-11.89,10.84-25.37,23.12-55.43,34.06c-0.56,0.2-0.85,0.82-0.64,1.38
		c0.16,0.44,0.57,0.71,1.01,0.71c0.12,0,0.25-0.02,0.37-0.07c29.88-10.88,43.58-23.05,55.45-33.87c-2.08,2.69-4.04,5.33-5.34,7.23
		c-7.36,10.68-10.34,18.36-8.88,22.85c0.02,0.07,0.05,0.15,0.08,0.21l0,0l0.02,0.05c0.02,0.04,0.03,0.08,0.05,0.12l0.02,0.02
		c0.58,1.69,1.85,2.78,3.71,3.13c0.42,0.08,0.88,0.12,1.37,0.12c9.63,0,31.42-14.88,46.74-28.82c-3.06,5.45-4.89,10.89-4.89,15.76
		c0,3.82,0.74,6.77,2.19,8.78c0.07,0.11,0.15,0.2,0.23,0.3l0.01,0.02l0.03,0.03l0.03,0.04l0.03,0.02c1.55,1.86,3.75,2.81,6.56,2.81
		c7.67,0,24.79-12.54,37.56-25.95l-9.29,12.05c-22.3,28.97-45.17,58.68-64.25,76.83c-24.86-10.5-49.44-17.86-74.62-17.86
		c-32.32,0-55.78,10.26-55.78,24.4c0,14.03,23.42,24.22,55.7,24.23l0.05,0.01c1.21,0.04,2.42,0.07,3.63,0.07
		c18.2,0,35.9-4.88,53.99-14.88l0,0c7-3.45,13.72-7.61,20.2-12.31c10.77,4.68,21.62,9.91,32.6,15.35
		c-12.64,12.53-23.84,26.52-32.71,41.81c-0.3,0.51-0.12,1.17,0.39,1.47c0.17,0.1,0.36,0.15,0.54,0.15c0.37,0,0.73-0.19,0.93-0.53
		l0,0l0,0c7.09-12.11,20.54-26.04,37-39.83l5.94,2.97c41.9,20.96,85.22,42.63,131.31,43.96c2.87,0.08,5.66,0.12,8.39,0.12
		c57.75,0,85.16-17.98,96.56-29.05c10.09-9.8,15.42-21.49,15.42-33.8C469.04,298.95,463.46,288.03,452.9,278.66z M205.49,238.88
		c-2.21,0-3.84-0.69-4.98-2.1c-0.03-0.04-0.07-0.08-0.1-0.13c-0.11-0.21-0.37-1.04,0.61-3.57c5.44-14.14,36.9-51.37,48.07-52.29
		c5.54,0.02,7.51,4.8,7.51,8.9C256.6,203.39,216.98,238.88,205.49,238.88z M94.93,332.59c-0.02,0-0.04,0.01-0.07,0.01
		c-30.58-0.01-53.63-9.51-53.63-22.11c0-12.7,23.07-22.28,53.66-22.28c24.53,0,48.57,7.13,72.92,17.33
		c-5.86,5.43-11.35,9.72-16.33,12.48l0,0C132.53,328.5,114.03,333.26,94.93,332.59z M452.13,342.5
		c-11.69,11.35-40.65,30.12-103.4,28.32c-45.62-1.32-88.73-22.88-130.42-43.73l-5.11-2.55c39.56-32.69,95.56-64.21,124.18-68.52
		l0.04-0.01c47.95-5.67,90.59,3.38,114.07,24.24c10.09,8.96,15.42,19.33,15.42,29.98C466.91,321.94,461.8,333.1,452.13,342.5z"/>
</g>
</svg>
