<?xml version="1.0" encoding="utf-8"?>
<!-- Generator: Adobe Illustrator 26.5.0, SVG Export Plug-In . SVG Version: 6.00 Build 0)  -->
<svg version="1.1" id="Layer_1" xmlns="http://www.w3.org/2000/svg" xmlns:xlink="http://www.w3.org/1999/xlink" x="0px" y="0px"
	 viewBox="0 0 500 500" style="enable-background:new 0 0 500 500;" xml:space="preserve">
<style type="text/css">
	.st0{fill:#0F2843;}
</style>
<g>
	<path class="st0" d="M69.22,246.52c0.03,0,0.06,0,0.09,0h0.03c0.26-0.01,0.52-0.02,0.79-0.03c11.5-0.59,26.71-6.57,39.02-15.38
		c8.62-6.17,23.08-19.04,22.97-35.85c-0.03-4.47-0.87-7.87-2.57-10.39c-3.33-4.94-9.28-5.47-15.03-5.99
		c-6.07-0.54-11.8-1.06-14.74-6.31c-1.5-3.34-0.63-8.25,2.53-14.21c10.7-20.18,43.87-47.13,66.31-55.12
		c-1.89,3.27-3.8,6.67-5.68,10.04c-3.21,5.75-6.25,11.18-9.08,15.69c-0.31,0.5-0.18,1.16,0.31,1.49c0.19,0.13,0.41,0.19,0.62,0.19
		c0.34,0,0.67-0.15,0.88-0.44c3.9-5.23,8.39-10.64,13.14-16.37c7.13-8.59,14.5-17.48,20.59-26.63c0.49-0.74,0.61-1.9-0.54-2.91
		c-1.36-1.2-4.79-2.18-6.04-1.1c-3.77,3.26-8.03,9.6-12.4,16.96c-16.2,3.47-33.49,10.91-47.19,20.46
		c-17.25,12.03-27.07,26.04-27.65,39.47c-0.25,5.83,0.5,10.25,2.3,13.49l0,0c3.49,6.28,10.08,6.87,16.45,7.44
		c5.45,0.49,10.6,0.96,13.37,4.97c1.74,4.08-0.18,10.88-5.45,19.18c-11.33,17.87-35.2,38-51.97,39.16c-0.3,0.02-0.59,0.03-0.88,0.04
		c-1.56-0.3-1.82-0.93-1.9-1.14c-0.9-2.25,3.07-7.71,6.26-12.09c4.08-5.61,6.53-9.17,5.59-11.53c-0.25-0.62-0.86-1.43-2.34-1.7
		c-3.09-0.57-6.21,0.91-8.82,4.16c-4.54,5.67-6.57,15.22-4.33,20.43C64.9,244.92,66.75,246.31,69.22,246.52z"/>
	<path class="st0" d="M194.27,177.75c2.36,0,4.28-1.92,4.28-4.28c0-2.36-1.92-4.28-4.28-4.28s-4.28,1.92-4.28,4.28
		C189.99,175.83,191.91,177.75,194.27,177.75z"/>
	<path class="st0" d="M452.63,273.75c-23.85-20.38-65.17-27.72-113.38-20.13c-0.02,0-0.05-0.01-0.07,0l0,0
		c-40.32,6.05-91.32,29.93-129.7,67.05c-10.89-5.33-21.66-10.45-32.36-15.06c25.18-18.98,46.45-46.16,64.85-72.42
		c14.62-15.33,44.41-37.18,53.71-35.46c1.07,0.2,1.71,0.73,2.05,1.64c-0.35,3.96-19.03,26.29-30.87,39.59
		c-0.29,0.32-0.35,0.78-0.17,1.17c0.18,0.38,0.56,0.62,0.97,0.62l0.04,0c0,0,7.69-0.27,8.06-0.27l0,0c0.32,0,0.63-0.14,0.85-0.41
		c0.12-0.16,0.26-0.32,0.38-0.48c1.43-1.36,3.8-4.14,6.29-7.25c14.62-15.68,38.11-34.6,45.86-33.16c1.04,0.19,1.65,0.76,1.98,1.83
		l0,0l0,0c0.02,0.05,0.03,0.11,0.05,0.16c0.32,1.56-3.5,5.47-6.88,8.92c-7.31,7.49-17.32,17.74-13.62,28.03l0,0.01l0,0l0.02,0.05
		l0.02,0.02c0.66,2.08,2.14,3.37,4.29,3.71c0.39,0.06,0.81,0.09,1.24,0.09c11.87,0,38.62-22.85,51.88-41.92
		c0.34-0.49,0.22-1.16-0.27-1.5c-0.49-0.34-1.16-0.22-1.5,0.27c-14.35,20.63-41.54,42.41-51.02,40.93c-1.34-0.21-2.15-0.92-2.57-2.2
		c-0.34-2.88,3.86-7.63,8.32-12.67c6.77-7.65,14.26-16.26,12.15-24.31c-0.02-0.08-0.04-0.16-0.07-0.23l0,0l0,0l-0.02-0.05
		l-0.02-0.04c-0.57-1.77-1.8-2.89-3.59-3.23c-7.29-1.35-23.92,10.94-37.68,23.75c6.84-10.18,9.56-17.54,8.03-21.83l-0.01-0.06
		l-0.02-0.03l-0.01-0.04c0,0-0.02-0.03-0.03-0.05c-0.57-1.73-1.85-2.83-3.73-3.18c-8.68-1.62-31.63,13.79-47.71,28.34
		c3.47-5.07,6.84-10.08,10.11-14.93c15.57-23.12,28.79-43.38,41.42-53.22c4.69-3.66,9.11-5.45,13.23-5.81
		c0.59-0.05,1.03-0.57,0.98-1.16c-0.05-0.59-0.55-1.04-1.16-0.98c-4.54,0.4-9.23,2.44-14.34,6.24c-10.86,8.07-25.18,24.82-41,44.8
		c2.06-3.59,3.28-6.85,3.28-9.48c0-6.61-3.9-11.06-9.7-11.06c-11.51,0-26.06,8.92-36.95,20.31c-0.06,0.05-0.13,0.09-0.18,0.16
		c-0.06,0.08-0.13,0.16-0.19,0.23c-1.49,1.58-2.92,3.19-4.24,4.84c-14.54,15.34-44.58,37.41-53.92,35.68
		c-1.14-0.21-1.81-0.79-2.13-1.82l-0.02-0.03l-0.01-0.04c-0.05-0.13-0.09-0.26-0.13-0.4c-0.59-4.01,15.59-22.5,32.13-38.62
		c0.31-0.31,0.41-0.77,0.25-1.17c-0.16-0.4-0.56-0.67-1-0.67h-9.17l-0.05,0.02c-0.22,0.01-0.44,0.07-0.63,0.22
		c-3.46,2.8-6.66,5.72-10.05,8.81c-11.89,10.84-25.37,23.12-55.43,34.06c-0.56,0.2-0.85,0.82-0.64,1.38
		c0.16,0.44,0.57,0.71,1.01,0.71c0.12,0,0.25-0.02,0.37-0.07c29.88-10.88,43.58-23.05,55.45-33.87c-2.08,2.69-4.04,5.33-5.34,7.23
		c-7.36,10.68-10.23,18.33-8.88,22.85c0.02,0.07,0.05,0.14,0.08,0.21l0,0l0.02,0.05c0.02,0.04,0.03,0.08,0.05,0.12l0.02,0.02
		c0.58,1.69,1.85,2.78,3.71,3.13c0.42,0.08,0.88,0.12,1.37,0.12c9.63,0,31.42-14.88,46.74-28.82c-3.06,5.45-4.89,10.89-4.89,15.76
		c0,3.81,0.74,6.76,2.19,8.78c0.07,0.11,0.15,0.2,0.23,0.3l0.01,0.03l0.03,0.03l0.03,0.04l0.03,0.02c1.55,1.86,3.75,2.81,6.56,2.81
		c7.67,0,24.79-12.54,37.56-25.95l-9.29,12.04c-22.2,28.83-44.95,58.39-63.97,76.57c-24.95-10.35-49.63-17.6-74.9-17.6
		c-32.32,0-55.78,10.26-55.78,24.4c0,14.03,23.42,24.21,55.7,24.23l0.05,0.01c1.21,0.04,2.42,0.07,3.63,0.07
		c18.2,0,35.9-4.88,53.99-14.88l0,0c7.13-3.52,13.97-7.77,20.56-12.58c10.81,4.62,21.68,9.78,32.69,15.16
		c-12.83,12.65-24.18,26.79-33.17,42.27l-0.01,0.03l0,0c-12.77,24.13-10.86,47.68,5,61.44c8.27,7.17,19.77,10.95,33,10.95
		c2.98,0,6.06-0.19,9.2-0.58c19.15-2.36,40.66-11.88,62.18-27.53c0.68-0.44,1.36-0.9,2.03-1.37c15-10.27,28.32-23.5,40.28-37.78
		c8.05,1.53,16.18,2.59,24.4,3c4.77,0.24,9.44,0.36,14,0.36c40.02,0,71.63-9.3,89.9-26.66c10.79-10.25,16.49-22.85,16.49-36.43
		C471.16,296.81,464.58,283.96,452.63,273.75z M207.62,238.6c-2.22,0-3.84-0.69-4.98-2.1c-0.03-0.04-0.07-0.08-0.1-0.13
		c-0.11-0.21-0.36-1.04,0.61-3.57c5.44-14.14,36.9-51.37,48.07-52.29c5.54,0.02,7.51,4.8,7.51,8.9
		C258.73,203.11,219.11,238.6,207.62,238.6z M97.06,332.31c-0.02,0-0.05,0.01-0.07,0.01c-30.57-0.01-53.63-9.51-53.63-22.11
		c0-12.7,23.07-22.28,53.66-22.28c24.62,0,48.76,7.01,73.2,17.07c-5.97,5.56-11.56,9.94-16.61,12.74l0,0
		C134.65,328.22,116.15,332.99,97.06,332.31z M181.08,424.34c-15.06-13.07-17.3-35.86-4.53-58.78c6.91-12.4,20.83-26.34,37.54-40.27
		l7,3.45c32.01,15.82,64.88,32.01,99.15,39.63c-11.26,15.25-22.94,28.66-35.36,37.29c-0.67,0.46-1.35,0.91-2.03,1.36l-0.02,0.02
		l-0.02,0.01C242.6,436.28,202.67,443.06,181.08,424.34z M453.2,344.83c-19.92,18.93-56.27,28.06-102.32,25.71
		c-7.72-0.39-15.36-1.37-22.94-2.77c14.23-17.26,26.53-35.91,37.46-52.74c14.16-17.81,28.97-24.15,38.11-24.15
		c0.81,0,1.53,0.08,2.16,0.25c0.82,0.23,1.61,0.74,1.39,2.51c-0.42,3.42-3.97,8.83-8.78,14.5c-16.46,4.52-31.56,8.98-34.47,17.76
		c-0.05,0.14-1.06,3.5,0.68,5.87c1.04,1.42,2.78,2.14,5.17,2.14c15.05,0,29.97-13.81,37.04-25.85c14.21-3.97,27.88-8.41,33.82-16.02
		c0.36-0.47,0.28-1.14-0.19-1.51c-0.47-0.37-1.14-0.28-1.51,0.19c-5.26,6.74-17.56,10.97-30.68,14.7c1.45-2.88,2.38-5.59,2.69-7.89
		c0.6-4.49-1.03-7.5-4.59-8.47l0,0c-0.81-0.22-1.73-0.33-2.74-0.33c-7.72,0-19.2,4.23-30.99,15.35
		c12.37-18.95,22.49-33.47,31.45-38.08l0.03-0.01c0.53-0.27,0.74-0.92,0.47-1.45c-0.27-0.53-0.92-0.74-1.45-0.47
		c-14.32,7.34-27.94,23.99-41.78,43.86c-13.6,12.8-29.67,24.7-35.71,23.57c-1.02-0.19-1.64-0.77-1.96-1.84l-0.02-0.03l-0.01-0.04
		c-0.05-0.13-0.09-0.26-0.13-0.4c-0.59-4.01,15.59-22.5,32.13-38.62c0.31-0.31,0.41-0.77,0.25-1.17s-0.56-0.67-1-0.67h-9.17
		c-0.3,0-1.04,0.65-2.03,1.7c-0.15,0.07-0.28,0.16-0.39,0.3c-0.23,0.3-0.48,0.6-0.72,0.9c-1.25,1.41-2.7,3.23-4.28,5.12
		c-13.85,16.55-36.84,36.14-44.15,34.76c-0.96-0.18-1.57-0.77-1.89-1.85l-0.02-0.03l-0.01-0.04c-0.05-0.13-0.09-0.26-0.13-0.4
		c-0.59-4.01,15.59-22.5,32.13-38.62c0.31-0.31,0.41-0.77,0.25-1.17s-0.56-0.67-1-0.67h-9.17l-0.05,0.02
		c-0.22,0.01-0.44,0.07-0.63,0.22c-3.46,2.8-6.67,5.72-10.05,8.81c-11.89,10.84-25.37,23.12-55.42,34.06
		c-0.56,0.2-0.85,0.82-0.64,1.38c0.16,0.44,0.57,0.71,1.01,0.71c0.12,0,0.25-0.02,0.37-0.07c29.88-10.88,43.58-23.05,55.46-33.87
		c-2.08,2.69-4.04,5.33-5.34,7.22c-7.36,10.68-10.35,18.37-8.88,22.85c0.02,0.07,0.05,0.15,0.08,0.21l0,0
		c0.01,0.02,0.02,0.04,0.03,0.06c0.01,0.03,0.03,0.08,0.04,0.11l0,0c0.59,1.74,1.78,2.85,3.49,3.17c0.35,0.07,0.71,0.1,1.1,0.1
		c7.39,0,21.56-11.61,33.5-23.39c-5.82,9.06-8.04,15.67-6.82,19.74c0.02,0.07,0.05,0.14,0.08,0.21l0,0l0.02,0.05
		c0.02,0.04,0.03,0.09,0.05,0.12l0,0c0.58,1.73,1.8,2.83,3.56,3.16c0.35,0.07,0.73,0.1,1.13,0.1c6.41,0,18.41-8.32,29.77-18.2
		c-3.74,5.54-7.5,11.25-11.3,17.02c-7.57,11.51-15.25,23.16-23.13,33.96c-34.37-7.48-67.4-23.76-99.58-39.66l-6.15-3.04
		c39.53-32.52,95.15-63.77,123.63-68.06l0.06-0.02c47.6-7.5,88.31-0.34,111.69,19.64c11.47,9.8,17.78,22.08,17.78,34.58
		C469.03,322.93,463.56,334.99,453.2,344.83z M366.22,330.51c-1.1-1.49-0.37-3.94-0.37-3.94c2.37-7.15,15.69-11.52,29.84-15.47
		c-9.29,10.24-21.56,20.41-26.07,20.67C367.98,331.76,366.83,331.34,366.22,330.51z"/>
</g>
</svg>
